<svg width="21" height="21" viewBox="0 0 21 21" fill="none" xmlns="http://www.w3.org/2000/svg">
<g id="Edit Square">
<path id="Stroke 1" d="M9.4923 0.788994H5.7533C2.6783 0.788994 0.750305 2.96599 0.750305 6.04799V14.362C0.750305 17.444 2.6693 19.621 5.7533 19.621H14.5773C17.6623 19.621 19.5813 17.444 19.5813 14.362V10.334" stroke="#130F26" stroke-opacity="0.6" stroke-width="1.5" stroke-linecap="round" stroke-linejoin="round"/>
<path id="Stroke 3" fill-rule="evenodd" clip-rule="evenodd" d="M6.82782 8.9209L14.3008 1.4479C15.2318 0.517897 16.7408 0.517897 17.6718 1.4479L18.8888 2.6649C19.8198 3.5959 19.8198 5.1059 18.8888 6.0359L11.3798 13.5449C10.9728 13.9519 10.4208 14.1809 9.84482 14.1809H6.09882L6.19282 10.4009C6.20682 9.8449 6.43382 9.3149 6.82782 8.9209Z" stroke="#130F26" stroke-opacity="0.6" stroke-width="1.5" stroke-linecap="round" stroke-linejoin="round"/>
<path id="Stroke 5" d="M13.1652 2.60249L17.7312 7.16849" stroke="#130F26" stroke-opacity="0.6" stroke-width="1.5" stroke-linecap="round" stroke-linejoin="round"/>
</g>
</svg>
