<svg width="20" height="20" viewBox="0 0 20 20" fill="none" xmlns="http://www.w3.org/2000/svg">
<path id="Vector" d="M10.614 0.210694C10.4385 0.0741393 10.2224 0 10 0C9.7776 0 9.56154 0.0741393 9.386 0.210694L1.158 6.61069C0.797161 6.89139 0.505244 7.25084 0.304548 7.66159C0.103851 8.07235 -0.000316451 8.52353 7.22133e-07 8.98069V18.0007C7.22133e-07 18.5311 0.210714 19.0398 0.585787 19.4149C0.96086 19.79 1.46957 20.0007 2 20.0007H6C6.53043 20.0007 7.03914 19.79 7.41421 19.4149C7.78929 19.0398 8 18.5311 8 18.0007V12.0007H12V18.0007C12 18.5311 12.2107 19.0398 12.5858 19.4149C12.9609 19.79 13.4696 20.0007 14 20.0007H18C18.5304 20.0007 19.0391 19.79 19.4142 19.4149C19.7893 19.0398 20 18.5311 20 18.0007V8.98069C20.0001 8.52337 19.8956 8.07208 19.6946 7.66131C19.4935 7.25055 19.2012 6.89119 18.84 6.61069L10.614 0.210694Z" fill="#9046CF"/>
</svg>
