<svg width="20" height="24" viewBox="0 0 20 24" fill="none" xmlns="http://www.w3.org/2000/svg">
<path id="Vector" d="M19.5048 2.85389L10.1998 0.0296719C10.0696 -0.00989063 9.93069 -0.00989063 9.8004 0.0296719L0.495293 2.85389C0.201314 2.94309 0 3.21684 0 3.52734V13.8828C0 15.2297 0.538938 16.6085 1.60185 17.9808C2.41368 19.029 3.53678 20.0814 4.94 21.1091C7.29725 22.8354 9.61841 23.8944 9.71607 23.9386C9.80642 23.9795 9.90321 24 10 24C10.0968 24 10.1937 23.9796 10.284 23.9386C10.3817 23.8944 12.7028 22.8354 15.06 21.1091C16.4632 20.0814 17.5863 19.029 18.3982 17.9808C19.4611 16.6085 20 15.2297 20 13.8828V3.52734C20 3.21684 19.7988 2.94309 19.5048 2.85389ZM18.6101 13.8828C17 11.9999 14.9832 10.0537 13 11.509C13 11.509 11.1817 13.631 10.5 13.9636C8 14.9454 9.86086 18.3818 9.71607 21.1091C9.71607 18.0612 10.2373 16.8921 10 14.4375L10.5 13.9636L18.6101 13.8828Z" fill="#9046CF" fill-opacity="0.4"/>
</svg>
