<svg width="20" height="21" viewBox="0 0 20 21" fill="none" xmlns="http://www.w3.org/2000/svg">
<g id="Tick Square">
<path id="Tick Square_2" fill-rule="evenodd" clip-rule="evenodd" d="M5.67009 0.499901H14.3401C17.7301 0.499901 20.0001 2.8799 20.0001 6.4199V14.5909C20.0001 18.1199 17.7301 20.4999 14.3401 20.4999H5.67009C2.28009 20.4999 9.15527e-05 18.1199 9.15527e-05 14.5909V6.4199C9.15527e-05 2.8799 2.28009 0.499901 5.67009 0.499901ZM9.43009 13.4899L14.1801 8.7399C14.5201 8.3999 14.5201 7.8499 14.1801 7.4999C13.8401 7.1599 13.2801 7.1599 12.9401 7.4999L8.81009 11.6299L7.06009 9.8799C6.72009 9.5399 6.16009 9.5399 5.82009 9.8799C5.48009 10.2199 5.48009 10.7699 5.82009 11.1199L8.20009 13.4899C8.37009 13.6599 8.59009 13.7399 8.81009 13.7399C9.04009 13.7399 9.26009 13.6599 9.43009 13.4899Z" fill="#9046CF"/>
</g>
</svg>
